<svg aria-hidden="true" style="position: absolute; width: 0; height: 0; overflow: hidden;" version="1.1" xmlns="http://www.w3.org/2000/svg" xmlns:xlink="http://www.w3.org/1999/xlink">
<defs>
<symbol id="icon-email" viewBox="0 0 32 32">
<path d="M1.4 5.525c-1.375 1.075-1.4 1.225-1.4 10.475s0.025 9.4 1.4 10.475c0.65 0.525 0.85 0.525 14.6 0.525s13.95 0 14.6-0.525c1.375-1.075 1.4-1.225 1.4-10.475s-0.025-9.4-1.4-10.475c-0.65-0.525-0.85-0.525-14.6-0.525s-13.95 0-14.6 0.525zM28.625 6.975c-2.4 2.25-11.75 10.35-12.2 10.5-0.3 0.125-0.75 0.15-0.975 0.050-0.4-0.15-12.45-10.725-12.45-10.925 0-0.050 5.875-0.1 13.050-0.1 12.775 0 13.050 0 12.575 0.475zM5.95 11.35c2.2 1.975 3.25 3.050 3.1 3.25-3.1 4.050-7.175 9.325-7.35 9.5-0.1 0.15-0.2-3.55-0.2-8.225v-8.45l0.575 0.5c0.3 0.25 2.050 1.825 3.875 3.425zM30.5 15.875c0 4.475-0.075 8.125-0.175 8.125-0.225-0.025-7.725-9.5-7.65-9.675 0.125-0.275 7.375-6.575 7.575-6.575 0.15 0 0.25 3 0.25 8.125zM12.475 17.125c1.875 1.625 3.050 2.2 4.075 1.95 0.675-0.175 2.75-1.7 3.8-2.8 0.425-0.425 0.825-0.775 0.95-0.775 0.2 0 7.95 9.625 7.95 9.875 0 0.075-5.95 0.125-13.25 0.125s-13.25-0.050-13.25-0.125c0-0.25 7.525-9.875 7.7-9.875 0.1 0 1.025 0.725 2.025 1.625z"></path>
</symbol>
<symbol id="icon-phone" viewBox="0 0 32 32">
<path d="M6.075 0.275c-2.575 0.5-4.625 1.925-5.625 3.85-1.35 2.6 0.7 10.15 4.175 15.375 4.55 6.85 12.675 11.775 20.375 12.425 1.6 0.125 2.050 0.075 2.9-0.375 2.3-1.175 3.75-3.825 4-7.275 0.15-1.725 0.1-1.975-0.45-2.775-0.525-0.775-0.875-0.95-3.325-1.675-1.525-0.425-3.050-0.8-3.4-0.8-0.725-0.025-1.35 0.475-2.5 2.1-0.95 1.325-1.125 1.325-3.6 0.125-3.050-1.475-6.4-4.825-7.875-7.875-1.2-2.475-1.2-2.65 0.125-3.6 1.625-1.15 2.125-1.775 2.1-2.5 0-0.35-0.375-1.875-0.8-3.4-0.725-2.45-0.9-2.8-1.65-3.3-0.9-0.625-2.4-0.725-4.45-0.3zM9.725 1.725c0.275 0.175 1.775 4.875 1.775 5.55 0 0.125-0.75 0.725-1.65 1.375l-1.65 1.175 0.125 1.125c0.075 0.6 0.6 2.075 1.2 3.275 1.525 3.1 5.15 6.725 8.25 8.25 1.2 0.6 2.675 1.125 3.275 1.2l1.125 0.125 1.175-1.65c0.65-0.9 1.25-1.65 1.375-1.65 0.675 0 5.375 1.5 5.575 1.775 0.125 0.2 0.175 1.1 0.1 2-0.25 2.95-1.25 4.925-2.975 5.85-0.85 0.45-1.075 0.45-3.25 0.175-11.2-1.4-21.075-11.3-22.475-22.475-0.3-2.25-0.275-2.425 0.225-3.3 0.675-1.175 2.125-2.175 3.825-2.625 1.55-0.425 3.45-0.5 3.975-0.175z"></path>
<path d="M16.25 0.4c-0.525 0.625 0.15 0.975 2.45 1.3 3.025 0.425 5.425 1.625 7.7 3.9s3.475 4.675 3.9 7.7c0.325 2.3 0.675 2.975 1.3 2.45 0.525-0.425 0.5-1.775-0.1-4.1-1.425-5.625-5.525-9.725-11.15-11.15-2.325-0.6-3.675-0.625-4.1-0.1z"></path>
<path d="M16.15 4.9c-0.25 0.675 0.275 1.025 1.675 1.15 1.775 0.15 4.050 1.25 5.475 2.625 1.375 1.35 2.5 3.675 2.65 5.5 0.125 1.4 0.475 1.925 1.15 1.675 0.55-0.225 0.525-1.9-0.1-3.9-1-3.225-3.725-5.95-6.95-6.95-2-0.625-3.675-0.65-3.9-0.1z"></path>
<path d="M16.175 9.35c-0.2 0.525 0.475 1.15 1.225 1.15 1.675 0 3.7 1.75 3.975 3.425 0.25 1.475 0.575 2.125 1.075 2.025 0.35-0.075 0.425-0.35 0.425-1.475-0.025-2.75-2.375-5.175-5.225-5.425-1.050-0.075-1.35-0.025-1.475 0.3z"></path>
</symbol>
<symbol id="icon-compass" viewBox="0 0 32 32">
<path d="M17 32c-0.072 0-0.144-0.008-0.217-0.024-0.458-0.102-0.783-0.507-0.783-0.976v-15h-15c-0.469 0-0.875-0.326-0.976-0.783s0.129-0.925 0.553-1.123l30-14c0.381-0.178 0.833-0.098 1.13 0.199s0.377 0.749 0.199 1.13l-14 30c-0.167 0.358-0.524 0.577-0.906 0.577zM5.508 14h11.492c0.552 0 1 0.448 1 1v11.492l10.931-23.423-23.423 10.931z"></path>
</symbol>
</defs>
</svg>
